<?xml version="1.0" encoding="iso-8859-1"?>
<!-- Generator: Adobe Illustrator 19.0.0, SVG Export Plug-In . SVG Version: 6.00 Build 0)  -->
<svg version="1.1" id="Capa_1" xmlns="http://www.w3.org/2000/svg" xmlns:xlink="http://www.w3.org/1999/xlink" x="0px" y="0px"
	 viewBox="0 0 512 512" style="enable-background:new 0 0 512 512;" xml:space="preserve">
<path style="fill:#FCC69D;" d="M71.938,198.262l-0.049,34.528c-0.065,45.558,18.004,89.269,50.218,121.483l45.605,45.605l0,0
	l91.894,91.894c13.665,13.665,35.819,13.665,49.485,0l0,0c13.082-13.082,13.606-33.924,1.64-47.67l23.491,23.49
	c12.506,12.506,32.562,14.529,46.579,3.743c16.449-12.657,18.147-35.883,5.182-50.778l21.062,21.062
	c12.462,12.463,34.235,14.039,47.737,2.71c15.952-13.385,16.728-37.215,2.326-51.615l-21.641-21.641
	c14.895,12.966,38.121,11.267,50.778-5.181c10.785-14.017,8.762-34.073-3.743-46.579L355.917,192.729
	c-4.306-4.306,1.107-11.206,6.314-8.049l33.253,20.159c16.182,9.809,37.552,6.001,48.489-9.441
	c11.632-16.423,7.429-39.182-9.263-50.375l-78.654-52.743c-28.314-18.987-61.646-29.102-95.736-29.053l-53.422,0.076L153.597,10
	L18.637,144.961L71.938,198.262z"/>
<circle style="fill:#FFC66C;" cx="225.66" cy="228.119" r="80.003"/>
<path d="M129.179,347.201c-30.557-30.556-47.351-71.184-47.29-114.398l0.049-34.527c0.004-2.657-1.05-5.207-2.929-7.085
	l-53.3-53.301c-3.905-3.905-10.237-3.905-14.144,0c-3.905,3.905-3.905,10.237,0,14.144l50.366,50.366l-0.043,30.377
	c-0.034,23.995,4.596,47.405,13.763,69.581c9.167,22.175,22.418,42.022,39.385,58.988l31.49,31.49
	c1.953,1.953,4.512,2.929,7.071,2.929s5.119-0.976,7.071-2.929c3.905-3.905,3.905-10.237,0-14.144L129.179,347.201z"/>
<path d="M183.828,405.996c-2.63,0-5.21,1.06-7.07,2.93c-1.86,1.86-2.93,4.43-2.93,7.07c0,2.63,1.07,5.21,2.93,7.07
	c1.86,1.86,4.44,2.93,7.07,2.93c2.63,0,5.21-1.07,7.07-2.93c1.86-1.86,2.93-4.44,2.93-7.07c0-2.64-1.07-5.21-2.93-7.07
	C189.039,407.056,186.458,405.996,183.828,405.996z"/>
<path d="M490.208,312.877l-98.844-98.843c20.505,12.225,47.201,6.523,60.914-13.062c7.111-10.155,9.774-22.461,7.498-34.647
	c-2.276-12.188-9.2-22.702-19.498-29.607l-78.653-52.745c-30.002-20.119-64.938-30.747-101.055-30.747c-0.086,0-0.178,0-0.264,0
	l-49.272,0.07L160.668,2.929c-3.905-3.905-10.237-3.905-14.144,0c-3.905,3.905-3.905,10.237,0,14.144l53.301,53.3
	c1.875,1.876,4.419,2.929,7.071,2.929c0.004,0,0.009,0,0.014,0l53.422-0.076c0.079,0,0.156,0,0.235,0
	c32.134,0,63.223,9.458,89.917,27.358l78.654,52.743c5.796,3.887,9.694,9.806,10.975,16.668c1.281,6.861-0.218,13.788-4.221,19.505
	c-7.757,11.079-22.894,14.265-34.457,7.253l-33.998-20.61c-6.656-4.035-14.977-2.52-19.782,3.605
	c-4.805,6.125-4.297,14.567,1.208,20.073l127.198,127.198c9.744,9.743,9.744,25.598,0,35.341c-9.152,9.152-23.694,9.706-33.5,1.667
	l-75.87-75.695c-3.905-3.904-10.237-3.904-14.144,0c-3.905,3.905-3.905,10.237,0,14.144l74.029,74.029
	c0.752,0.752,1.53,1.459,2.321,2.146l21.134,21.134c9.744,9.743,9.744,25.598,0,35.341c-4.72,4.72-10.995,7.319-17.671,7.319
	s-12.951-2.599-17.671-7.319l-21.12-21.12c-0.694-0.797-1.407-1.581-2.161-2.335l-74.116-73.941c-3.905-3.905-10.237-3.905-14.144,0
	c-3.905,3.905-3.905,10.237,0,14.144l75.799,75.799c3.651,4.451,5.636,9.979,5.636,15.813c0,6.675-2.6,12.951-7.32,17.671
	c-4.72,4.72-10.995,7.319-17.671,7.319s-12.951-2.6-17.671-7.32l-23.619-23.619c-0.687-0.79-1.395-1.569-2.147-2.321l-39.373-39.373
	c-0.36-0.36-0.746-0.675-1.144-0.969l-7.747-7.746c-3.905-3.905-10.237-3.905-14.144,0c-3.905,3.905-3.905,10.237,0,14.143
	l49.943,49.943c3.652,4.452,5.638,9.981,5.638,15.816c0,6.675-2.599,12.951-7.319,17.671c-9.744,9.745-25.599,9.744-35.341,0
	l-50.641-50.641c-3.905-3.905-10.237-3.905-14.144,0c-3.905,3.905-3.905,10.237,0,14.144l50.641,50.641
	C261.298,507.615,272.82,512,284.341,512c11.521,0,23.043-4.385,31.814-13.157c6.503-6.503,10.589-14.521,12.271-22.927
	c8.421,8.1,19.448,12.562,31.165,12.562c12.017,0,23.316-4.68,31.813-13.178c6.412-6.412,10.647-14.419,12.341-23.126
	c8.277,6.831,18.443,10.252,28.61,10.252c11.521,0,23.043-4.385,31.814-13.157c16.519-16.519,17.477-42.79,2.885-60.447
	c8.486-1.654,16.585-5.758,23.145-12.318C507.75,358.962,507.75,330.419,490.208,312.877z"/>
<path d="M198.889,223.289c2.63,0,5.21-1.07,7.07-2.93c1.86-1.86,2.93-4.44,2.93-7.07c0-2.64-1.07-5.22-2.93-7.08
	c-1.86-1.86-4.43-2.92-7.07-2.92c-2.63,0-5.21,1.06-7.07,2.92s-2.93,4.44-2.93,7.08c0,2.63,1.07,5.21,2.93,7.07
	C193.679,222.219,196.259,223.289,198.889,223.289z"/>
<path d="M252.431,223.289c2.63,0,5.21-1.07,7.07-2.93c1.86-1.87,2.93-4.44,2.93-7.07c0-2.64-1.07-5.21-2.93-7.08
	c-1.86-1.86-4.44-2.92-7.07-2.92s-5.21,1.06-7.07,2.92c-1.86,1.87-2.93,4.44-2.93,7.08c0,2.63,1.07,5.2,2.93,7.07
	C247.221,222.219,249.801,223.289,252.431,223.289z"/>
<path d="M201.897,257.769c6.347,6.348,14.787,9.843,23.764,9.843s17.417-3.496,23.764-9.843c3.905-3.905,3.905-10.237,0-14.143
	c-3.905-3.905-10.237-3.905-14.143,0c-2.569,2.57-5.986,3.985-9.62,3.985s-7.051-1.415-9.62-3.985
	c-3.905-3.906-10.237-3.904-14.143,0C197.992,247.532,197.991,253.863,201.897,257.769z"/>
<path d="M225.66,318.121c49.628,0,90.004-40.376,90.004-90.004s-40.376-90.004-90.004-90.004s-90.004,40.376-90.004,90.004
	S176.032,318.121,225.66,318.121z M225.66,158.114c38.6,0,70.003,31.403,70.003,70.003S264.26,298.12,225.66,298.12
	s-70.003-31.403-70.003-70.003S187.06,158.114,225.66,158.114z"/>
<g>
</g>
<g>
</g>
<g>
</g>
<g>
</g>
<g>
</g>
<g>
</g>
<g>
</g>
<g>
</g>
<g>
</g>
<g>
</g>
<g>
</g>
<g>
</g>
<g>
</g>
<g>
</g>
<g>
</g>
</svg>
